{
	"patcher" : 	{
		"fileversion" : 1,
		"appversion" : 		{
			"major" : 6,
			"minor" : 1,
			"revision" : 9,
			"architecture" : "x86"
		}
,
		"rect" : [ 68.0, 45.0, 851.0, 485.0 ],
		"bglocked" : 0,
		"openinpresentation" : 0,
		"default_fontsize" : 12.0,
		"default_fontface" : 0,
		"default_fontname" : "Arial",
		"gridonopen" : 0,
		"gridsize" : [ 15.0, 15.0 ],
		"gridsnaponopen" : 0,
		"statusbarvisible" : 2,
		"toolbarvisible" : 1,
		"boxanimatetime" : 200,
		"imprint" : 0,
		"enablehscroll" : 1,
		"enablevscroll" : 1,
		"devicewidth" : 0.0,
		"description" : "",
		"digest" : "",
		"tags" : "",
		"boxes" : [ 			{
				"box" : 				{
					"fontname" : "Arial",
					"fontsize" : 12.0,
					"id" : "obj-31",
					"maxclass" : "newobj",
					"numinlets" : 0,
					"numoutlets" : 0,
					"patcher" : 					{
						"fileversion" : 1,
						"appversion" : 						{
							"major" : 6,
							"minor" : 1,
							"revision" : 9,
							"architecture" : "x86"
						}
,
						"rect" : [ 195.0, 431.0, 640.0, 480.0 ],
						"bglocked" : 0,
						"openinpresentation" : 0,
						"default_fontsize" : 12.0,
						"default_fontface" : 0,
						"default_fontname" : "Arial",
						"gridonopen" : 0,
						"gridsize" : [ 15.0, 15.0 ],
						"gridsnaponopen" : 0,
						"statusbarvisible" : 2,
						"toolbarvisible" : 1,
						"boxanimatetime" : 200,
						"imprint" : 0,
						"enablehscroll" : 1,
						"enablevscroll" : 1,
						"devicewidth" : 0.0,
						"description" : "",
						"digest" : "",
						"tags" : "",
						"visible" : 1,
						"boxes" : [  ],
						"lines" : [  ]
					}
,
					"patching_rect" : [ 441.0, 224.0, 151.0, 20.0 ],
					"saved_object_attributes" : 					{
						"default_fontface" : 0,
						"default_fontname" : "Arial",
						"default_fontsize" : 12.0,
						"description" : "",
						"digest" : "",
						"fontface" : 0,
						"fontname" : "Arial",
						"fontsize" : 12.0,
						"globalpatchername" : "",
						"tags" : ""
					}
,
					"text" : "p"
				}

			}
, 			{
				"box" : 				{
					"id" : "obj-29",
					"maxclass" : "ezadc~",
					"numinlets" : 1,
					"numoutlets" : 2,
					"outlettype" : [ "signal", "signal" ],
					"patching_rect" : [ 523.0, 16.0, 45.0, 45.0 ]
				}

			}
, 			{
				"box" : 				{
					"id" : "obj-28",
					"maxclass" : "toggle",
					"numinlets" : 1,
					"numoutlets" : 1,
					"outlettype" : [ "int" ],
					"parameter_enable" : 0,
					"patching_rect" : [ 452.0, 41.0, 20.0, 20.0 ]
				}

			}
, 			{
				"box" : 				{
					"fontname" : "Arial",
					"fontsize" : 12.0,
					"id" : "obj-26",
					"maxclass" : "newobj",
					"numinlets" : 3,
					"numoutlets" : 1,
					"outlettype" : [ "signal" ],
					"patching_rect" : [ 474.0, 87.0, 94.0, 20.0 ],
					"text" : "record~ sample"
				}

			}
, 			{
				"box" : 				{
					"fontname" : "Arial",
					"fontsize" : 12.0,
					"id" : "obj-25",
					"maxclass" : "newobj",
					"numinlets" : 1,
					"numoutlets" : 2,
					"outlettype" : [ "signal", "bang" ],
					"patching_rect" : [ 366.0, 87.0, 82.0, 20.0 ],
					"text" : "play~ sample"
				}

			}
, 			{
				"box" : 				{
					"fontname" : "Arial",
					"fontsize" : 12.0,
					"id" : "obj-24",
					"maxclass" : "newobj",
					"numinlets" : 1,
					"numoutlets" : 2,
					"outlettype" : [ "float", "bang" ],
					"patching_rect" : [ 574.0, 121.0, 120.0, 20.0 ],
					"text" : "buffer~ sample 1000"
				}

			}
, 			{
				"box" : 				{
					"id" : "obj-23",
					"margins" : [ 1.0, 0.0, 1.0, 0.0 ],
					"maxclass" : "plot~",
					"numinlets" : 1,
					"numoutlets" : 1,
					"numpoints" : 441,
					"outlettype" : [ "" ],
					"patching_rect" : [ 585.0, 323.0, 137.0, 131.0 ],
					"presentation_rect" : [ 567.0, 215.0, 0.0, 0.0 ],
					"subplots" : [ 						{
							"color" : [ 0.4, 0.4, 0.75, 1.0 ],
							"thickness" : 1.2,
							"point_style" : "none",
							"line_style" : "lines",
							"number_style" : "none",
							"filter" : "none",
							"domain_start" : 0.0,
							"domain_end" : 1.0,
							"domain_style" : "linear",
							"domain_markers" : [ 0.0, 0.125, 0.25, 0.375, 0.5, 0.625, 0.75, 0.875, 1.0 ],
							"domain_labels" : [  ],
							"range_start" : -1.0,
							"range_end" : 1.0,
							"range_style" : "linear",
							"range_markers" : [ -0.5, 0.0, 0.5 ],
							"range_labels" : [  ],
							"origin_x" : 0.0,
							"origin_y" : 0.0
						}
 ]
				}

			}
, 			{
				"box" : 				{
					"fontname" : "Arial",
					"fontsize" : 12.0,
					"id" : "obj-22",
					"maxclass" : "flonum",
					"numinlets" : 1,
					"numoutlets" : 2,
					"outlettype" : [ "float", "bang" ],
					"parameter_enable" : 0,
					"patching_rect" : [ 294.0, 121.0, 50.0, 20.0 ]
				}

			}
, 			{
				"box" : 				{
					"id" : "obj-20",
					"margins" : [ 1.0, 0.0, 1.0, 0.0 ],
					"maxclass" : "plot~",
					"numinlets" : 1,
					"numoutlets" : 1,
					"numpoints" : 441,
					"outlettype" : [ "" ],
					"patching_rect" : [ 432.0, 323.0, 137.0, 131.0 ],
					"presentation_rect" : [ 414.0, 210.0, 0.0, 0.0 ],
					"subplots" : [ 						{
							"color" : [ 0.4, 0.4, 0.75, 1.0 ],
							"thickness" : 1.2,
							"point_style" : "none",
							"line_style" : "lines",
							"number_style" : "none",
							"filter" : "none",
							"domain_start" : 0.0,
							"domain_end" : 1.0,
							"domain_style" : "linear",
							"domain_markers" : [ 0.0, 0.125, 0.25, 0.375, 0.5, 0.625, 0.75, 0.875, 1.0 ],
							"domain_labels" : [  ],
							"range_start" : -1.0,
							"range_end" : 1.0,
							"range_style" : "linear",
							"range_markers" : [ -0.5, 0.0, 0.5 ],
							"range_labels" : [  ],
							"origin_x" : 0.0,
							"origin_y" : 0.0
						}
 ]
				}

			}
, 			{
				"box" : 				{
					"id" : "obj-19",
					"margins" : [ 1.0, 0.0, 1.0, 0.0 ],
					"maxclass" : "plot~",
					"numinlets" : 1,
					"numoutlets" : 1,
					"numpoints" : 441,
					"outlettype" : [ "" ],
					"patching_rect" : [ 279.0, 323.0, 137.0, 131.0 ],
					"presentation_rect" : [ 261.0, 217.0, 0.0, 0.0 ],
					"subplots" : [ 						{
							"color" : [ 0.4, 0.4, 0.75, 1.0 ],
							"thickness" : 1.2,
							"point_style" : "none",
							"line_style" : "lines",
							"number_style" : "none",
							"filter" : "none",
							"domain_start" : 0.0,
							"domain_end" : 1.0,
							"domain_style" : "linear",
							"domain_markers" : [ 0.0, 0.125, 0.25, 0.375, 0.5, 0.625, 0.75, 0.875, 1.0 ],
							"domain_labels" : [  ],
							"range_start" : -1.0,
							"range_end" : 1.0,
							"range_style" : "linear",
							"range_markers" : [ -0.5, 0.0, 0.5 ],
							"range_labels" : [  ],
							"origin_x" : 0.0,
							"origin_y" : 0.0
						}
 ]
				}

			}
, 			{
				"box" : 				{
					"id" : "obj-18",
					"margins" : [ 1.0, 0.0, 1.0, 0.0 ],
					"maxclass" : "plot~",
					"numinlets" : 1,
					"numoutlets" : 1,
					"numpoints" : 441,
					"outlettype" : [ "" ],
					"patching_rect" : [ 131.0, 323.0, 137.0, 131.0 ],
					"subplots" : [ 						{
							"color" : [ 0.4, 0.4, 0.75, 1.0 ],
							"thickness" : 1.2,
							"point_style" : "none",
							"line_style" : "lines",
							"number_style" : "none",
							"filter" : "none",
							"domain_start" : 0.0,
							"domain_end" : 1.0,
							"domain_style" : "linear",
							"domain_markers" : [ 0.0, 0.125, 0.25, 0.375, 0.5, 0.625, 0.75, 0.875, 1.0 ],
							"domain_labels" : [  ],
							"range_start" : -1.0,
							"range_end" : 1.0,
							"range_style" : "linear",
							"range_markers" : [ -0.5, 0.0, 0.5 ],
							"range_labels" : [  ],
							"origin_x" : 0.0,
							"origin_y" : 0.0
						}
 ]
				}

			}
, 			{
				"box" : 				{
					"id" : "obj-17",
					"maxclass" : "ezdac~",
					"numinlets" : 2,
					"numoutlets" : 0,
					"patching_rect" : [ 44.0, 245.5, 45.0, 45.0 ],
					"presentation_rect" : [ 68.0, 216.5, 0.0, 0.0 ]
				}

			}
, 			{
				"box" : 				{
					"fontname" : "Arial",
					"fontsize" : 18.0,
					"frgb" : 0.0,
					"id" : "obj-15",
					"maxclass" : "comment",
					"numinlets" : 1,
					"numoutlets" : 0,
					"patching_rect" : [ 31.0, 43.0, 219.0, 27.0 ],
					"text" : "Irregular Impulses"
				}

			}
, 			{
				"box" : 				{
					"fontname" : "Arial",
					"fontsize" : 12.0,
					"frgb" : 0.0,
					"id" : "obj-13",
					"maxclass" : "comment",
					"numinlets" : 1,
					"numoutlets" : 0,
					"patching_rect" : [ 222.0, 112.0, 42.0, 20.0 ],
					"text" : "range"
				}

			}
, 			{
				"box" : 				{
					"fontname" : "Arial",
					"fontsize" : 12.0,
					"frgb" : 0.0,
					"id" : "obj-12",
					"maxclass" : "comment",
					"numinlets" : 1,
					"numoutlets" : 0,
					"patching_rect" : [ 31.0, 112.0, 36.0, 20.0 ],
					"text" : "min"
				}

			}
, 			{
				"box" : 				{
					"fontname" : "Arial",
					"fontsize" : 12.0,
					"id" : "obj-8",
					"maxclass" : "number",
					"numinlets" : 1,
					"numoutlets" : 2,
					"outlettype" : [ "int", "bang" ],
					"parameter_enable" : 0,
					"patching_rect" : [ 169.0, 112.0, 50.0, 20.0 ]
				}

			}
, 			{
				"box" : 				{
					"fontname" : "Arial",
					"fontsize" : 12.0,
					"id" : "obj-7",
					"maxclass" : "number",
					"numinlets" : 1,
					"numoutlets" : 2,
					"outlettype" : [ "int", "bang" ],
					"parameter_enable" : 0,
					"patching_rect" : [ 67.0, 112.0, 50.0, 20.0 ]
				}

			}
, 			{
				"box" : 				{
					"fontname" : "Arial",
					"fontsize" : 12.0,
					"id" : "obj-4",
					"maxclass" : "newobj",
					"numinlets" : 3,
					"numoutlets" : 4,
					"outlettype" : [ "signal", "signal", "signal", "signal" ],
					"patcher" : 					{
						"fileversion" : 1,
						"appversion" : 						{
							"major" : 6,
							"minor" : 1,
							"revision" : 9,
							"architecture" : "x86"
						}
,
						"rect" : [ 279.0, 45.0, 488.0, 533.0 ],
						"bgcolor" : [ 0.9, 0.9, 0.9, 1.0 ],
						"bglocked" : 0,
						"openinpresentation" : 0,
						"default_fontsize" : 12.0,
						"default_fontface" : 0,
						"default_fontname" : "Arial",
						"gridonopen" : 0,
						"gridsize" : [ 15.0, 15.0 ],
						"gridsnaponopen" : 0,
						"statusbarvisible" : 2,
						"toolbarvisible" : 1,
						"boxanimatetime" : 200,
						"imprint" : 0,
						"enablehscroll" : 1,
						"enablevscroll" : 1,
						"devicewidth" : 0.0,
						"description" : "",
						"digest" : "",
						"tags" : "",
						"boxes" : [ 							{
								"box" : 								{
									"fontname" : "Arial",
									"fontsize" : 12.0,
									"id" : "obj-27",
									"maxclass" : "newobj",
									"numinlets" : 0,
									"numoutlets" : 1,
									"outlettype" : [ "" ],
									"patching_rect" : [ 306.0, 328.0, 30.0, 20.0 ],
									"text" : "in 3"
								}

							}
, 							{
								"box" : 								{
									"fontname" : "Arial",
									"fontsize" : 12.0,
									"id" : "obj-25",
									"maxclass" : "newobj",
									"numinlets" : 1,
									"numoutlets" : 1,
									"outlettype" : [ "" ],
									"patching_rect" : [ 258.5, 482.0, 49.0, 20.0 ],
									"presentation_rect" : [ 259.5, 480.0, 0.0, 0.0 ],
									"text" : "clip 0 1"
								}

							}
, 							{
								"box" : 								{
									"fontname" : "Arial",
									"fontsize" : 12.0,
									"id" : "obj-26",
									"maxclass" : "newobj",
									"numinlets" : 2,
									"numoutlets" : 1,
									"outlettype" : [ "" ],
									"patching_rect" : [ 258.5, 454.0, 32.5, 20.0 ],
									"presentation_rect" : [ 259.5, 452.0, 0.0, 0.0 ],
									"text" : "/"
								}

							}
, 							{
								"box" : 								{
									"fontname" : "Arial",
									"fontsize" : 12.0,
									"id" : "obj-23",
									"maxclass" : "newobj",
									"numinlets" : 1,
									"numoutlets" : 1,
									"outlettype" : [ "" ],
									"patching_rect" : [ 202.5, 482.0, 49.0, 20.0 ],
									"presentation_rect" : [ 198.5, 486.0, 0.0, 0.0 ],
									"text" : "clip 0 1"
								}

							}
, 							{
								"box" : 								{
									"fontname" : "Arial",
									"fontsize" : 12.0,
									"id" : "obj-24",
									"maxclass" : "newobj",
									"numinlets" : 2,
									"numoutlets" : 1,
									"outlettype" : [ "" ],
									"patching_rect" : [ 202.5, 454.0, 32.5, 20.0 ],
									"presentation_rect" : [ 198.5, 458.0, 0.0, 0.0 ],
									"text" : "/"
								}

							}
, 							{
								"box" : 								{
									"fontname" : "Arial",
									"fontsize" : 12.0,
									"id" : "obj-21",
									"maxclass" : "newobj",
									"numinlets" : 1,
									"numoutlets" : 1,
									"outlettype" : [ "" ],
									"patching_rect" : [ 113.5, 489.0, 49.0, 20.0 ],
									"presentation_rect" : [ 112.5, 481.0, 0.0, 0.0 ],
									"text" : "clip 0 1"
								}

							}
, 							{
								"box" : 								{
									"fontname" : "Arial",
									"fontsize" : 12.0,
									"id" : "obj-22",
									"maxclass" : "newobj",
									"numinlets" : 2,
									"numoutlets" : 1,
									"outlettype" : [ "" ],
									"patching_rect" : [ 113.5, 454.0, 32.5, 20.0 ],
									"presentation_rect" : [ 112.5, 453.0, 0.0, 0.0 ],
									"text" : "/"
								}

							}
, 							{
								"box" : 								{
									"fontname" : "Arial",
									"fontsize" : 12.0,
									"id" : "obj-20",
									"maxclass" : "newobj",
									"numinlets" : 1,
									"numoutlets" : 1,
									"outlettype" : [ "" ],
									"patching_rect" : [ 44.5, 482.0, 49.0, 20.0 ],
									"text" : "clip 0 1"
								}

							}
, 							{
								"box" : 								{
									"fontname" : "Arial",
									"fontsize" : 12.0,
									"id" : "obj-19",
									"maxclass" : "newobj",
									"numinlets" : 2,
									"numoutlets" : 1,
									"outlettype" : [ "" ],
									"patching_rect" : [ 44.5, 454.0, 32.5, 20.0 ],
									"text" : "/"
								}

							}
, 							{
								"box" : 								{
									"fontname" : "Arial",
									"fontsize" : 12.0,
									"id" : "obj-18",
									"maxclass" : "newobj",
									"numinlets" : 1,
									"numoutlets" : 1,
									"outlettype" : [ "" ],
									"patching_rect" : [ 249.0, 432.0, 56.0, 20.0 ],
									"presentation_rect" : [ 258.0, 432.0, 0.0, 0.0 ],
									"text" : "accum 1"
								}

							}
, 							{
								"box" : 								{
									"fontname" : "Arial",
									"fontsize" : 12.0,
									"id" : "obj-17",
									"maxclass" : "newobj",
									"numinlets" : 1,
									"numoutlets" : 1,
									"outlettype" : [ "" ],
									"patching_rect" : [ 179.0, 426.0, 56.0, 20.0 ],
									"presentation_rect" : [ 177.5, 425.0, 0.0, 0.0 ],
									"text" : "accum 1"
								}

							}
, 							{
								"box" : 								{
									"fontname" : "Arial",
									"fontsize" : 12.0,
									"id" : "obj-16",
									"maxclass" : "newobj",
									"numinlets" : 1,
									"numoutlets" : 1,
									"outlettype" : [ "" ],
									"patching_rect" : [ 113.5, 426.0, 56.0, 20.0 ],
									"presentation_rect" : [ 113.5, 421.0, 0.0, 0.0 ],
									"text" : "accum 1"
								}

							}
, 							{
								"box" : 								{
									"fontname" : "Arial",
									"fontsize" : 12.0,
									"id" : "obj-15",
									"maxclass" : "newobj",
									"numinlets" : 1,
									"numoutlets" : 1,
									"outlettype" : [ "" ],
									"patching_rect" : [ 44.5, 426.0, 56.0, 20.0 ],
									"text" : "accum 1"
								}

							}
, 							{
								"box" : 								{
									"fontname" : "Arial",
									"fontsize" : 12.0,
									"id" : "obj-14",
									"maxclass" : "newobj",
									"numinlets" : 1,
									"numoutlets" : 1,
									"outlettype" : [ "" ],
									"patching_rect" : [ 44.5, 354.0, 28.0, 20.0 ],
									"text" : "+ 1"
								}

							}
, 							{
								"box" : 								{
									"fontname" : "Arial",
									"fontsize" : 12.0,
									"id" : "obj-13",
									"maxclass" : "newobj",
									"numinlets" : 1,
									"numoutlets" : 1,
									"outlettype" : [ "" ],
									"patching_rect" : [ 44.5, 302.0, 46.0, 20.0 ],
									"text" : "history"
								}

							}
, 							{
								"box" : 								{
									"fontname" : "Arial",
									"fontsize" : 12.0,
									"id" : "obj-12",
									"maxclass" : "newobj",
									"numinlets" : 2,
									"numoutlets" : 1,
									"outlettype" : [ "" ],
									"patching_rect" : [ 44.5, 328.0, 94.0, 20.0 ],
									"text" : "accum @max 4"
								}

							}
, 							{
								"box" : 								{
									"fontname" : "Arial",
									"fontsize" : 12.0,
									"id" : "obj-11",
									"maxclass" : "newobj",
									"numinlets" : 1,
									"numoutlets" : 0,
									"patching_rect" : [ 258.5, 509.0, 37.0, 20.0 ],
									"text" : "out 4"
								}

							}
, 							{
								"box" : 								{
									"fontname" : "Arial",
									"fontsize" : 12.0,
									"id" : "obj-8",
									"maxclass" : "newobj",
									"numinlets" : 1,
									"numoutlets" : 0,
									"patching_rect" : [ 188.5, 509.0, 37.0, 20.0 ],
									"text" : "out 3"
								}

							}
, 							{
								"box" : 								{
									"fontname" : "Arial",
									"fontsize" : 12.0,
									"id" : "obj-7",
									"maxclass" : "newobj",
									"numinlets" : 1,
									"numoutlets" : 0,
									"patching_rect" : [ 113.5, 522.0, 37.0, 20.0 ],
									"text" : "out 2"
								}

							}
, 							{
								"box" : 								{
									"fontname" : "Arial",
									"fontsize" : 12.0,
									"id" : "obj-6",
									"maxclass" : "newobj",
									"numinlets" : 2,
									"numoutlets" : 4,
									"outlettype" : [ "", "", "", "" ],
									"patching_rect" : [ 44.5, 381.0, 59.5, 20.0 ],
									"text" : "gate 4"
								}

							}
, 							{
								"box" : 								{
									"fontname" : "Arial",
									"fontsize" : 12.0,
									"id" : "obj-54",
									"maxclass" : "newobj",
									"numinlets" : 1,
									"numoutlets" : 1,
									"outlettype" : [ "" ],
									"patching_rect" : [ 184.0, 258.0, 46.0, 20.0 ],
									"text" : "history"
								}

							}
, 							{
								"box" : 								{
									"fontname" : "Arial",
									"fontsize" : 12.0,
									"id" : "obj-53",
									"maxclass" : "newobj",
									"numinlets" : 1,
									"numoutlets" : 1,
									"outlettype" : [ "" ],
									"patching_rect" : [ 142.0, 296.0, 46.0, 20.0 ],
									"text" : "history"
								}

							}
, 							{
								"box" : 								{
									"fontname" : "Arial",
									"fontsize" : 12.0,
									"id" : "obj-52",
									"maxclass" : "newobj",
									"numinlets" : 3,
									"numoutlets" : 1,
									"outlettype" : [ "" ],
									"patching_rect" : [ 184.0, 217.0, 46.0, 20.0 ],
									"text" : "sah"
								}

							}
, 							{
								"box" : 								{
									"fontname" : "Arial",
									"fontsize" : 12.0,
									"id" : "obj-50",
									"maxclass" : "newobj",
									"numinlets" : 2,
									"numoutlets" : 1,
									"outlettype" : [ "" ],
									"patching_rect" : [ 69.0, 258.0, 32.5, 20.0 ],
									"text" : ">"
								}

							}
, 							{
								"box" : 								{
									"fontname" : "Arial",
									"fontsize" : 12.0,
									"id" : "obj-49",
									"maxclass" : "newobj",
									"numinlets" : 1,
									"numoutlets" : 1,
									"outlettype" : [ "" ],
									"patching_rect" : [ 69.0, 179.0, 56.0, 20.0 ],
									"text" : "accum 1"
								}

							}
, 							{
								"box" : 								{
									"fontname" : "Arial",
									"fontsize" : 12.0,
									"id" : "obj-5",
									"maxclass" : "newobj",
									"numinlets" : 0,
									"numoutlets" : 1,
									"outlettype" : [ "" ],
									"patching_rect" : [ 249.0, 136.0, 30.0, 20.0 ],
									"text" : "in 1"
								}

							}
, 							{
								"box" : 								{
									"fontname" : "Arial",
									"fontsize" : 12.0,
									"id" : "obj-1",
									"maxclass" : "newobj",
									"numinlets" : 2,
									"numoutlets" : 1,
									"outlettype" : [ "" ],
									"patching_rect" : [ 184.0, 174.0, 84.0, 20.0 ],
									"text" : "+"
								}

							}
, 							{
								"box" : 								{
									"fontname" : "Arial",
									"fontsize" : 12.0,
									"id" : "obj-10",
									"maxclass" : "newobj",
									"numinlets" : 0,
									"numoutlets" : 1,
									"outlettype" : [ "" ],
									"patching_rect" : [ 229.0, 73.0, 30.0, 20.0 ],
									"text" : "in 2"
								}

							}
, 							{
								"box" : 								{
									"fontname" : "Arial",
									"fontsize" : 12.0,
									"id" : "obj-9",
									"maxclass" : "newobj",
									"numinlets" : 2,
									"numoutlets" : 1,
									"outlettype" : [ "" ],
									"patching_rect" : [ 184.0, 107.0, 32.5, 20.0 ],
									"text" : "*"
								}

							}
, 							{
								"box" : 								{
									"fontname" : "Arial",
									"fontsize" : 12.0,
									"id" : "obj-3",
									"maxclass" : "newobj",
									"numinlets" : 1,
									"numoutlets" : 1,
									"outlettype" : [ "" ],
									"patching_rect" : [ 184.0, 73.0, 30.0, 20.0 ],
									"text" : "abs"
								}

							}
, 							{
								"box" : 								{
									"fontname" : "Arial",
									"fontsize" : 12.0,
									"id" : "obj-2",
									"maxclass" : "newobj",
									"numinlets" : 0,
									"numoutlets" : 1,
									"outlettype" : [ "" ],
									"patching_rect" : [ 184.0, 36.0, 39.0, 20.0 ],
									"text" : "noise"
								}

							}
, 							{
								"box" : 								{
									"fontname" : "Arial",
									"fontsize" : 12.0,
									"id" : "obj-4",
									"maxclass" : "newobj",
									"numinlets" : 1,
									"numoutlets" : 0,
									"patching_rect" : [ 44.5, 509.0, 37.0, 20.0 ],
									"text" : "out 1"
								}

							}
 ],
						"lines" : [ 							{
								"patchline" : 								{
									"destination" : [ "obj-52", 0 ],
									"disabled" : 0,
									"hidden" : 0,
									"source" : [ "obj-1", 0 ]
								}

							}
, 							{
								"patchline" : 								{
									"destination" : [ "obj-9", 1 ],
									"disabled" : 0,
									"hidden" : 0,
									"source" : [ "obj-10", 0 ]
								}

							}
, 							{
								"patchline" : 								{
									"destination" : [ "obj-14", 0 ],
									"disabled" : 0,
									"hidden" : 0,
									"source" : [ "obj-12", 0 ]
								}

							}
, 							{
								"patchline" : 								{
									"destination" : [ "obj-12", 0 ],
									"disabled" : 0,
									"hidden" : 0,
									"source" : [ "obj-13", 0 ]
								}

							}
, 							{
								"patchline" : 								{
									"destination" : [ "obj-6", 0 ],
									"disabled" : 0,
									"hidden" : 0,
									"source" : [ "obj-14", 0 ]
								}

							}
, 							{
								"patchline" : 								{
									"destination" : [ "obj-19", 0 ],
									"disabled" : 0,
									"hidden" : 0,
									"source" : [ "obj-15", 0 ]
								}

							}
, 							{
								"patchline" : 								{
									"destination" : [ "obj-22", 0 ],
									"disabled" : 0,
									"hidden" : 0,
									"source" : [ "obj-16", 0 ]
								}

							}
, 							{
								"patchline" : 								{
									"destination" : [ "obj-24", 0 ],
									"disabled" : 0,
									"hidden" : 0,
									"source" : [ "obj-17", 0 ]
								}

							}
, 							{
								"patchline" : 								{
									"destination" : [ "obj-26", 0 ],
									"disabled" : 0,
									"hidden" : 0,
									"source" : [ "obj-18", 0 ]
								}

							}
, 							{
								"patchline" : 								{
									"destination" : [ "obj-20", 0 ],
									"disabled" : 0,
									"hidden" : 0,
									"source" : [ "obj-19", 0 ]
								}

							}
, 							{
								"patchline" : 								{
									"destination" : [ "obj-3", 0 ],
									"disabled" : 0,
									"hidden" : 0,
									"source" : [ "obj-2", 0 ]
								}

							}
, 							{
								"patchline" : 								{
									"destination" : [ "obj-4", 0 ],
									"disabled" : 0,
									"hidden" : 0,
									"source" : [ "obj-20", 0 ]
								}

							}
, 							{
								"patchline" : 								{
									"destination" : [ "obj-7", 0 ],
									"disabled" : 0,
									"hidden" : 0,
									"source" : [ "obj-21", 0 ]
								}

							}
, 							{
								"patchline" : 								{
									"destination" : [ "obj-21", 0 ],
									"disabled" : 0,
									"hidden" : 0,
									"source" : [ "obj-22", 0 ]
								}

							}
, 							{
								"patchline" : 								{
									"destination" : [ "obj-8", 0 ],
									"disabled" : 0,
									"hidden" : 0,
									"source" : [ "obj-23", 0 ]
								}

							}
, 							{
								"patchline" : 								{
									"destination" : [ "obj-23", 0 ],
									"disabled" : 0,
									"hidden" : 0,
									"source" : [ "obj-24", 0 ]
								}

							}
, 							{
								"patchline" : 								{
									"destination" : [ "obj-11", 0 ],
									"disabled" : 0,
									"hidden" : 0,
									"source" : [ "obj-25", 0 ]
								}

							}
, 							{
								"patchline" : 								{
									"destination" : [ "obj-25", 0 ],
									"disabled" : 0,
									"hidden" : 0,
									"source" : [ "obj-26", 0 ]
								}

							}
, 							{
								"patchline" : 								{
									"destination" : [ "obj-19", 1 ],
									"disabled" : 0,
									"hidden" : 0,
									"source" : [ "obj-27", 0 ]
								}

							}
, 							{
								"patchline" : 								{
									"destination" : [ "obj-22", 1 ],
									"disabled" : 0,
									"hidden" : 0,
									"source" : [ "obj-27", 0 ]
								}

							}
, 							{
								"patchline" : 								{
									"destination" : [ "obj-24", 1 ],
									"disabled" : 0,
									"hidden" : 0,
									"source" : [ "obj-27", 0 ]
								}

							}
, 							{
								"patchline" : 								{
									"destination" : [ "obj-26", 1 ],
									"disabled" : 0,
									"hidden" : 0,
									"source" : [ "obj-27", 0 ]
								}

							}
, 							{
								"patchline" : 								{
									"destination" : [ "obj-9", 0 ],
									"disabled" : 0,
									"hidden" : 0,
									"source" : [ "obj-3", 0 ]
								}

							}
, 							{
								"patchline" : 								{
									"destination" : [ "obj-50", 0 ],
									"disabled" : 0,
									"hidden" : 0,
									"source" : [ "obj-49", 0 ]
								}

							}
, 							{
								"patchline" : 								{
									"destination" : [ "obj-1", 1 ],
									"disabled" : 0,
									"hidden" : 0,
									"source" : [ "obj-5", 0 ]
								}

							}
, 							{
								"patchline" : 								{
									"destination" : [ "obj-13", 0 ],
									"disabled" : 0,
									"hidden" : 0,
									"source" : [ "obj-50", 0 ]
								}

							}
, 							{
								"patchline" : 								{
									"destination" : [ "obj-52", 1 ],
									"disabled" : 0,
									"hidden" : 0,
									"source" : [ "obj-50", 0 ]
								}

							}
, 							{
								"patchline" : 								{
									"destination" : [ "obj-53", 0 ],
									"disabled" : 0,
									"hidden" : 0,
									"source" : [ "obj-50", 0 ]
								}

							}
, 							{
								"patchline" : 								{
									"destination" : [ "obj-6", 1 ],
									"disabled" : 0,
									"hidden" : 0,
									"source" : [ "obj-50", 0 ]
								}

							}
, 							{
								"patchline" : 								{
									"destination" : [ "obj-54", 0 ],
									"disabled" : 0,
									"hidden" : 0,
									"source" : [ "obj-52", 0 ]
								}

							}
, 							{
								"patchline" : 								{
									"destination" : [ "obj-49", 0 ],
									"disabled" : 0,
									"hidden" : 0,
									"source" : [ "obj-53", 0 ]
								}

							}
, 							{
								"patchline" : 								{
									"destination" : [ "obj-50", 1 ],
									"disabled" : 0,
									"hidden" : 0,
									"source" : [ "obj-54", 0 ]
								}

							}
, 							{
								"patchline" : 								{
									"destination" : [ "obj-15", 0 ],
									"disabled" : 0,
									"hidden" : 0,
									"source" : [ "obj-6", 0 ]
								}

							}
, 							{
								"patchline" : 								{
									"destination" : [ "obj-16", 0 ],
									"disabled" : 0,
									"hidden" : 0,
									"source" : [ "obj-6", 1 ]
								}

							}
, 							{
								"patchline" : 								{
									"destination" : [ "obj-17", 0 ],
									"disabled" : 0,
									"hidden" : 0,
									"source" : [ "obj-6", 2 ]
								}

							}
, 							{
								"patchline" : 								{
									"destination" : [ "obj-18", 0 ],
									"disabled" : 0,
									"hidden" : 0,
									"source" : [ "obj-6", 3 ]
								}

							}
, 							{
								"patchline" : 								{
									"destination" : [ "obj-1", 0 ],
									"disabled" : 0,
									"hidden" : 0,
									"source" : [ "obj-9", 0 ]
								}

							}
 ]
					}
,
					"patching_rect" : [ 67.0, 146.0, 121.0, 20.0 ],
					"text" : "gen~"
				}

			}
 ],
		"lines" : [ 			{
				"patchline" : 				{
					"destination" : [ "obj-4", 2 ],
					"disabled" : 0,
					"hidden" : 0,
					"source" : [ "obj-22", 0 ]
				}

			}
, 			{
				"patchline" : 				{
					"destination" : [ "obj-26", 0 ],
					"disabled" : 0,
					"hidden" : 0,
					"source" : [ "obj-28", 0 ]
				}

			}
, 			{
				"patchline" : 				{
					"destination" : [ "obj-26", 0 ],
					"disabled" : 0,
					"hidden" : 0,
					"source" : [ "obj-29", 0 ]
				}

			}
, 			{
				"patchline" : 				{
					"destination" : [ "obj-18", 0 ],
					"disabled" : 0,
					"hidden" : 0,
					"source" : [ "obj-4", 0 ]
				}

			}
, 			{
				"patchline" : 				{
					"destination" : [ "obj-19", 0 ],
					"disabled" : 0,
					"hidden" : 0,
					"source" : [ "obj-4", 1 ]
				}

			}
, 			{
				"patchline" : 				{
					"destination" : [ "obj-20", 0 ],
					"disabled" : 0,
					"hidden" : 0,
					"source" : [ "obj-4", 2 ]
				}

			}
, 			{
				"patchline" : 				{
					"destination" : [ "obj-23", 0 ],
					"disabled" : 0,
					"hidden" : 0,
					"source" : [ "obj-4", 3 ]
				}

			}
, 			{
				"patchline" : 				{
					"destination" : [ "obj-4", 0 ],
					"disabled" : 0,
					"hidden" : 0,
					"source" : [ "obj-7", 0 ]
				}

			}
, 			{
				"patchline" : 				{
					"destination" : [ "obj-4", 1 ],
					"disabled" : 0,
					"hidden" : 0,
					"source" : [ "obj-8", 0 ]
				}

			}
 ],
		"dependency_cache" : [  ]
	}

}
